<mxfile host="app.diagrams.net" modified="2024-04-14T18:51:57.027Z" agent="Mozilla/5.0 (Windows NT 10.0; Win64; x64) AppleWebKit/537.36 (KHTML, like Gecko) Chrome/123.0.0.0 Safari/537.36" version="24.2.5" etag="sWpHM-ffF3HfdDUa266k" type="github">
  <diagram name="PÃ¡gina-1" id="Jzln4Ag8I7DGjseYcu2s">
    <mxGraphModel>
      <root>
        <mxCell id="0" />
        <mxCell id="1" parent="0" />
      </root>
    </mxGraphModel>
  </diagram>
</mxfile>
